<?xml version="1.0" encoding="utf-8"?>
<!-- Generator: Adobe Illustrator 28.3.0, SVG Export Plug-In . SVG Version: 6.00 Build 0)  -->
<svg version="1.1" id="Logo" xmlns="http://www.w3.org/2000/svg" xmlns:xlink="http://www.w3.org/1999/xlink" x="0px" y="0px"
	 viewBox="0 0 800 800" style="enable-background:new 0 0 800 800;" xml:space="preserve">
<style type="text/css">
	.st0{fill:#0E363E;}
	.st1{fill:#FEE29B;}
	.st2{fill:#FEE29B;stroke:#000000;stroke-width:6;stroke-miterlimit:10;}
	.st3{fill:#FEE29B;stroke:#000000;stroke-width:3;stroke-miterlimit:10;}
	.st4{font-family:'MyriadPro-Regular';}
	.st5{font-size:95px;}
</style>
<g>
	<rect class="st0" width="800" height="800"/>
	<g>
		<polygon class="st1" points="95,408 95,236 140,236 140,370 189,370 189,408 		"/>
		<path d="M137,239v134h49v32H98V239H137 M143,233h-6H98h-6v6v166v6h6h88h6v-6v-32v-6h-6h-43V239V233L143,233z"/>
	</g>
	<path class="st2" d="M265.5,267c-37.28,0-67.5,31.56-67.5,70.5s30.22,70.5,67.5,70.5s67.5-31.56,67.5-70.5S302.78,267,265.5,267z
		 M265.5,373c-15.6,0-28.24-15.89-28.24-35.5S249.9,302,265.5,302s28.24,15.89,28.24,35.5S281.1,373,265.5,373z"/>
	<path class="st2" d="M445,267v19.6c-11.36-11.53-26.66-18.6-43.5-18.6c-35.07,0-63.5,30.67-63.5,68.5c0,37.83,28.43,68.5,63.5,68.5
		c16.84,0,32.14-7.07,43.5-18.6v24.88c-2.63,13.48-15.74,23.72-31.5,23.72c-15.87,0-29.05-10.38-31.56-24h-32.88
		c1.41,32.25,29.94,58,64.94,58c33.54,0,61.14-23.65,64.62-54H479V267H445z M411.5,377c-18.5,0-33.5-17.68-33.5-39.5
		s15-39.5,33.5-39.5s33.5,17.68,33.5,39.5S430,377,411.5,377z"/>
	<rect x="492" y="271" class="st2" width="38" height="135"/>
	<ellipse class="st2" cx="510.5" cy="241.5" rx="22.5" ry="20.5"/>
	<polygon class="st2" points="544,207.32 693,161 693,521 544,477.24 	"/>
	<path class="st0" d="M648.65,359h33.13c-8.42,27.3-32.45,47-60.78,47c-35.35,0-64-30.67-64-68.5c0-37.83,28.65-68.5,64-68.5
		c28.68,0,52.94,20.18,61.08,48h-34.44c-5.81-10.85-15.8-18-27.14-18c-17.95,0-32.5,17.91-32.5,40c0,22.09,14.55,40,32.5,40
		C632.53,379,643.03,370.96,648.65,359z"/>
	<text transform="matrix(1 0 0 1 216.3428 579.6572)" class="st3 st4 st5">STUDIOS</text>
</g>
</svg>
