<?xml version="1.0" encoding="UTF-8"?>
<svg id="Logo" xmlns="http://www.w3.org/2000/svg" version="1.1" viewBox="0 0 800 800">
  <defs>
    <style>
      .cls-1 {
        display: none;
      }

      .cls-1, .cls-2, .cls-3 {
        stroke-width: 0px;
      }

      .cls-1, .cls-3 {
        fill: #febb20;
      }

      .cls-2 {
        fill: #303233;
      }
    </style>
  </defs>
  <rect class="cls-2" width="800" height="800" rx="120" ry="120"/>
  <path class="cls-1" d="M430.6,484.8c0,28.1,45.9,50.7,96.1,50.7s99.4-22.7,99.4-50.7c0-40.5-54-50.7-113.4-62.7-76.1-14.6-161.4-31.3-161.4-106.9s75.1-122.1,175-122.1,170.1,54.6,170.1,122.1h-88c0-28.1-33-56.1-82.6-56.1s-86.4,28.6-86.4,56.1,48.1,42.1,103.7,51.3c79.3,12.9,173.9,28.6,173.9,117.7s-90.2,122.6-190.6,122.6-190.1-54.6-190.1-122.1h94.5,0Z"/>
  <g>
    <path class="cls-3" d="M157.1,219.2v291.2h231.1v58.4H86V219.2h71.1Z"/>
    <path class="cls-3" d="M490.1,468.5c0,24.5,39.1,44.5,81.9,44.5s84.8-20,84.8-44.5c0-35.5-46.1-44.5-96.7-54.9-65.1-13-137.7-27.5-137.7-93.9s64-107.4,149.6-107.4,145.1,48,145.1,107.4h-75.2c0-24.5-28.3-49.4-70.7-49.4s-73.7,25-73.7,49.4,40.9,37,88.6,45c67.7,11.5,148.5,25,148.5,103.4s-77,107.9-162.6,107.9-162.2-48-162.2-107.4h80.4Z"/>
  </g>
</svg>